Coordinates
version=1
nRows=6
nColumns=63
inDegrees=yes

Units are S.I. units (second, meters, Newtons, ...)
If the header above contains a line with 'inDegrees', this indicates whether rotational values are in degrees (yes) or radians (no).

endheader
time	pelvis_tilt	pelvis_list	pelvis_rotation	pelvis_tx	pelvis_ty	pelvis_tz	hip_flexion_r	hip_adduction_r	hip_rotation_r	knee_angle_r	knee_angle_r_beta	ankle_angle_r	subtalar_angle_r	mtp_angle_r	hip_flexion_l	hip_adduction_l	hip_rotation_l	knee_angle_l	knee_angle_l_beta	ankle_angle_l	subtalar_angle_l	mtp_angle_l	L5_S1_Flex_Ext	L5_S1_Lat_Bending	L5_S1_axial_rotation	L4_L5_Flex_Ext	L4_L5_Lat_Bending	L4_L5_axial_rotation	L3_L4_Flex_Ext	L3_L4_Lat_Bending	L3_L4_axial_rotation	L2_L3_Flex_Ext	L2_L3_Lat_Bending	L2_L3_axial_rotation	L1_L2_Flex_Ext	L1_L2_Lat_Bending	L1_L2_axial_rotation	L1_T12_Flex_Ext	L1_T12_Lat_Bending	L1_T12_axial_rotation	Abs_r3	Abs_r2	Abs_r1	Abs_t1	Abs_t2	neck_flexion	neck_bending	neck_rotation	arm_flex_r	arm_add_r	arm_rot_r	elbow_flex_r	pro_sup_r	wrist_flex_r	wrist_dev_r	arm_flex_l	arm_add_l	arm_rot_l	elbow_flex_l	pro_sup_l	wrist_flex_l	wrist_dev_l
      4.69491525	     -1.75823460	      6.11084041	     85.21338329	      0.36622290	      0.91971291	      0.55698067	     -7.46783105	      0.28829728	      8.58788384	      9.12443439	      0.15925142	     36.32264416	     -8.15248623	      0.00000000	     -4.11345905	     -2.90515145	    -10.78306346	     16.23396984	      0.28333622	     45.45188346	     17.76031113	      0.00000000	      0.08943940	      0.25747282	      0.18608006	      0.16609791	      0.34243886	      0.19771007	      0.14693999	      0.62601942	      0.19771007	      0.10222029	      0.62601942	      0.16282005	      0.08305343	      0.52503858	      0.15119005	      0.05110567	      0.39882540	      0.13956005	      0.63885669	      2.91258407	      1.03492148	      0.00000000	      0.00000000	     27.47823338	      5.06855332	     15.65439371	     18.15099984	     -4.37365835	     98.07583834	     27.42261953	      9.51043698	      9.81113072	      2.41425785	      9.73971870	     -5.94307724	     57.97607633	     34.59655897	     43.60909778	     -0.76910470	      0.03965995
      4.71186441	     -1.45788279	      5.84483523	     84.91749589	      0.36622083	      0.91915532	      0.55728115	     -6.93063639	      0.63077751	      9.23778894	      9.69267871	      0.16916916	     36.23303085	     -8.97384594	      0.00000000	     -3.96407718	     -3.20488685	    -11.52385882	     16.24409869	      0.28351301	     45.36146971	     17.70113873	      0.00000000	      0.11405972	      0.30302073	      0.13430644	      0.21182031	      0.40301757	      0.14270059	      0.18738872	      0.73676460	      0.14270059	      0.13035886	      0.73676460	      0.11751814	      0.10591586	      0.61791987	      0.10912398	      0.06517373	      0.46937911	      0.10072983	      0.81471721	      3.42783107	      0.74697213	      0.00000000	      0.00000000	     27.50109658	      3.88948613	     15.89854376	     17.31654963	     -4.22341782	     96.03172085	     27.74232818	     14.30590218	      8.13435683	      1.47305776	      8.05638642	     -6.28819034	     54.00072943	     35.00986515	     51.03347655	      1.26205580	     -0.63194154
      4.72881356	     -1.37902850	      5.82692397	     84.80760474	      0.36594252	      0.91898148	      0.55765775	     -6.86299625	      0.67081030	      9.15022247	      9.82559195	      0.17148893	     36.07150796	     -8.99384694	      0.00000000	     -4.01915393	     -3.24157788	    -11.75151716	     16.28278987	      0.28418829	     45.15018837	     17.53194616	      0.00000000	      0.10490777	      0.30984257	      0.10456946	      0.19482422	      0.41209062	      0.11110505	      0.17235298	      0.75335123	      0.11110505	      0.11989909	      0.75335123	      0.09149827	      0.09741736	      0.63183097	      0.08496268	      0.05994430	      0.47994615	      0.07842709	      0.74934573	      3.50500115	      0.58158394	      0.00000000	      0.00000000	     27.56951888	      3.72219081	     15.95091346	     17.09990632	     -3.99352705	     96.05597186	     27.86416082	     14.33899646	      8.11489424	      1.44871170	      7.77371439	     -6.60173974	     54.15741889	     34.98842901	     51.09081327	      1.35957711	     -0.58165577
      4.74576271	     -1.43264602	      5.56111512	     84.39192984	      0.36647209	      0.91835174	      0.55869407	     -6.17885681	      0.60413020	      9.12410695	     10.59341315	      0.18488994	     36.31618461	     -8.70412448	      0.00000000	     -3.84021497	     -3.18080483	    -12.65733287	     16.20252264	      0.28278737	     44.91311309	     17.47027732	      0.00000000	      0.12070166	      0.30879336	      0.15529239	      0.22415506	      0.41069517	      0.16499817	      0.19830076	      0.75080018	      0.16499817	      0.13794993	      0.75080018	      0.13588084	      0.11208356	      0.62969142	      0.12617507	      0.06896893	      0.47832092	      0.11646929	      0.86215991	      3.49313226	      0.86368969	      0.00000000	      0.00000000	     27.63807057	      2.88255523	     16.21547596	     16.98948724	     -3.70484351	     95.81892335	     27.64296942	     15.35074159	      7.29851884	      1.28384750	      8.21100206	     -7.41622060	     55.56671052	     35.46622270	     52.23597702	      2.76348388	     -0.00695950
      4.76271186	     -1.45303853	      5.57483227	     84.10767815	      0.36655940	      0.91823523	      0.55926767	     -6.02305365	      0.36026552	      7.46665467	     10.86622832	      0.18965146	     36.89354290	     -5.93035624	      0.00000000	     -4.06519951	     -2.99306656	    -12.49004869	     15.78746844	      0.27554330	     44.73114547	     16.75290968	      0.00000000	      0.09866074	      0.30533157	      0.19011252	      0.18322285	      0.40609098	      0.20199455	      0.16208972	      0.74238317	      0.20199455	      0.11275935	      0.74238317	      0.16634845	      0.09161636	      0.62263213	      0.15446642	      0.05637474	      0.47295860	      0.14258439	      0.70472376	      3.45397174	      1.05734879	      0.00000000	      0.00000000	     27.71897937	      2.58115145	     16.11505825	     16.36155899	     -3.81399223	     92.46483501	     27.47142063	     19.79969784	      6.96544978	      1.35374504	      8.56144192	     -7.62684340	     55.89124717	     35.52980299	     53.18283413	      3.21201506	      0.46650444
      4.77966102	     -1.44774226	      5.43652049	     83.75982795	      0.36712784	      0.91810035	      0.55992680	     -5.76444280	      0.26633298	      6.90744853	     10.95636052	      0.19122457	     36.99533498	     -4.58355438	      0.00000000	     -4.04283511	     -3.02644306	    -13.53525678	     15.59509996	      0.27218584	     44.81722624	     17.40349170	      0.00000000	      0.09926093	      0.30087199	      0.25999079	      0.18433748	      0.40015975	      0.27624021	      0.16307579	      0.73154016	      0.27624021	      0.11344532	      0.73154016	      0.22749194	      0.09217370	      0.61353816	      0.21124252	      0.05671770	      0.46605071	      0.19499309	      0.70901092	      3.40352414	      1.44599078	      0.00000000	      0.00000000	     27.72398384	      2.47330419	     15.80924674	     15.52671481	     -3.88229630	     87.93364226	     27.26300903	     23.12851505	      6.33253791	      2.59966962	      8.83892384	     -7.54166479	     54.96186803	     35.50936951	     56.51782916	      3.60213466	      1.75483140
